#!OML:ASF I:\golf\golf\golf 2\Subject 1\2002-09-07\Subject1.ASF
:FULLY-SPECIFIED
:DEGREES
387
root -4.80352 18.1127 -1.76096 -169.997 -0.391644 -173.706
lowerback -9.11891 9.22767 15.1445
upperback -13.074 16.8757 5.55256
thorax -7.63698 9.18044 -1.66602
lowerneck -5.16886 -23.1293 -3.10646
upperneck 7.0252 -33.6019 9.21973
head 4.99016 -16.5164 0.712178
rclavicle 8.18993e-014 2.22639e-014
rhumerus 101.971 29.7875 -51.4747
rradius 70.182
rwrist 10.0321
rhand -29.5979 22.7467
rfingers 7.12502
rthumb -2.92912 -7.21294
lclavicle 8.18993e-014 2.22639e-014
lhumerus 59.9136 11.8937 71.0318
lradius 84.2295
lwrist 25.9979
lhand -30.8369 17.5266
lfingers 7.12502
lthumb -184.126 -492.534
rfemur 16.1375 -3.92664 23.3668
rtibia 16.7839
rfoot 31.5296 -21.9925
rtoes 14.9828
lfemur -21.9404 -18.3912 -13.6636
ltibia 26.2411
lfoot 22.4585 -44.3879
ltoes 48.5847
388
root -4.79828 18.1088 -1.79607 -169.8 -0.773553 -173.605
lowerback -9.31385 14.4247 14.3979
upperback -13.9616 15.7524 4.12715
thorax -7.54622 5.41674 -2.04417
lowerneck -5.47879 -23.0269 -3.07407
upperneck 6.9823 -33.4501 9.44266
head 5.04933 -16.4184 0.737505
rclavicle 1.07344e-013 4.6118e-014
rhumerus 102.766 28.947 -51.478
rradius 70.9382
rwrist 9.95859
rhand -30.4017 23.353
rfingers 7.12502
rthumb -3.70536 -6.59449
lclavicle 1.07344e-013 4.6118e-014
lhumerus 61.3058 12.647 70.7226
lradius 84.7084
lwrist 25.0719
lhand -31.3885 17.8453
lfingers 7.12502
lthumb -184.658 -492.226
rfemur 16.4151 -3.98916 23.6546
rtibia 16.0489
rfoot 31.7685 -22.2105
rtoes 15.5485
lfemur -22.2352 -18.6693 -13.431
ltibia 26.4765
lfoot 22.645 -44.3414
ltoes 48.945
389
root -4.79294 18.1039 -1.83072 -169.676 -1.1191 -173.512
lowerback -9.26837 14.561 14.4781
upperback -14.1439 15.961 3.81564
thorax -7.64657 5.48941 -2.39681
lowerneck -5.69747 -22.967 -3.01101
upperneck 7.0557 -33.3003 9.31842
head 5.06569 -16.3355 0.690631
rclavicle 3.73715e-014 4.77083e-015
rhumerus 103.496 28.3698 -51.5879
rradius 71.5588
rwrist 10.3883
rhand -31.0875 24.1796
rfingers 7.12502
rthumb -4.36758 -5.75535
lclavicle 3.73715e-014 4.77083e-015
lhumerus 62.4428 13.4555 70.2637
lradius 85.1126
lwrist 24.1975
lhand -32.045 18.2779
lfingers 7.12502
lthumb -185.292 -491.808
rfemur 16.7699 -4.03395 23.9108
rtibia 15.3116
rfoot 32.1302 -22.1667
rtoes 15.6185
lfemur -22.4454 -18.9645 -13.2241
ltibia 26.6988
lfoot 22.7224 -44.3684
ltoes 49.2784
390
root -4.78818 18.0994 -1.86473 -169.557 -1.43841 -173.403
lowerback -9.30258 14.7441 14.5248
upperback -14.2286 16.2164 3.57064
thorax -7.61013 5.61 -2.63501
lowerneck -6.06108 -23.0145 -3.12076
upperneck 7.07614 -33.2329 9.15317
head 5.10955 -16.2822 0.621972
rclavicle 5.64548e-014 1.22451e-013
rhumerus 104.615 27.8592 -51.2507
rradius 71.9294
rwrist 10.9787
rhand -32.5851 24.6651
rfingers 7.12502
rthumb -5.81361 -5.23515
lclavicle 5.64548e-014 1.22451e-013
lhumerus 63.6615 14.2608 70.1358
lradius 85.489
lwrist 23.3797
lhand -32.4411 18.7782
lfingers 7.12502
lthumb -185.675 -491.318
rfemur 17.1632 -4.06495 24.1679
rtibia 14.4909
rfoot 32.6271 -21.9464
rtoes 14.8232
lfemur -22.661 -19.173 -13.0143
ltibia 26.9422
lfoot 22.5709 -44.5835
ltoes 49.2364
391
root -4.78681 18.0936 -1.89861 -169.43 -1.77297 -173.258
lowerback -9.3934 14.9596 14.6627
upperback -14.222 16.5062 3.30303
thorax -7.40143 5.76396 -2.91032
lowerneck -6.67181 -23.069 -3.30781
upperneck 7.09275 -33.1897 9.16221
head 5.23285 -16.2193 0.561379
rclavicle 6.04305e-014 -4.53229e-014
rhumerus 105.858 26.9402 -50.5347
rradius 72.4064
rwrist 11.0465
rhand -34.7639 24.1487
rfingers 7.12502
rthumb -7.91695 -5.68301
lclavicle 6.04305e-014 -4.53229e-014
lhumerus 65.0214 14.9961 70.2819
lradius 85.8961
lwrist 22.4888
lhand -32.7639 19.0573
lfingers 7.12502
lthumb -185.986 -491.047
rfemur 17.5797 -4.17065 24.4174
rtibia 13.6142
rfoot 33.2037 -21.655
rtoes 13.8913
lfemur -22.8817 -19.3085 -12.7867
ltibia 27.1919
lfoot 22.6163 -44.778
ltoes 49.2107
392
root -4.78692 18.0854 -1.93002 -169.32 -2.11982 -173.089
lowerback -9.53668 15.0383 14.8261
upperback -14.2594 16.5826 3.09829
thorax -7.25572 5.79501 -3.15231
lowerneck -6.74527 -22.8955 -3.44788
upperneck 6.97028 -32.9067 9.36539
head 5.24565 -16.0722 0.645553
rclavicle 1.16885e-013 1.35969e-013
rhumerus 106.852 25.9343 -50.0268
rradius 73.2255
rwrist 10.4262
rhand -34.2604 26.0625
rfingers 7.12502
rthumb -7.43094 -3.78701
lclavicle 1.16885e-013 1.35969e-013
lhumerus 66.0185 15.9802 69.9791
lradius 86.2983
lwrist 21.5798
lhand -33.1087 19.2986
lfingers 7.12502
lthumb -186.319 -490.816
rfemur 18.023 -4.29046 24.672
rtibia 12.7325
rfoot 33.6062 -21.5797
rtoes 14.1095
lfemur -23.0992 -19.4131 -12.5509
ltibia 27.441
lfoot 23.0444 -44.8395
ltoes 49.5332
393
root -4.78461 18.0768 -1.96016 -169.225 -2.44343 -173.003
lowerback -9.67089 15.0548 14.8168
upperback -14.3454 16.5799 2.95721
thorax -7.24239 5.78681 -3.27136
lowerneck -6.64043 -22.7572 -3.24718
upperneck 6.85354 -32.6053 9.06329
head 5.09377 -15.9463 0.625706
rclavicle 2.0276e-014 -1.27222e-014
rhumerus 107.946 26.2912 -50.0063
rradius 73.5063
rwrist 10.9596
rhand -35.0392 26.951
rfingers 7.12502
rthumb -8.18257 -2.87059
lclavicle 2.0276e-014 -1.27222e-014
lhumerus 66.7474 17.031 69.5061
lradius 86.7477
lwrist 20.7826
lhand -33.2212 19.3406
lfingers 7.12502
lthumb -186.428 -490.777
rfemur 18.4537 -4.33777 24.8788
rtibia 11.8994
rfoot 33.6344 -21.995
rtoes 15.0083
lfemur -23.3089 -19.5504 -12.3958
ltibia 27.6784
lfoot 23.5195 -44.8104
ltoes 50.1016
394
root -4.78112 18.0686 -1.98938 -169.105 -2.75509 -173.043
lowerback -9.71889 15.1447 14.6912
upperback -14.4777 16.7146 2.7136
thorax -7.30495 5.85083 -3.44668
lowerneck -6.86598 -22.8239 -2.90966
upperneck 6.96 -32.5304 8.34271
head 4.98322 -15.9205 0.423651
rclavicle -1.0138e-013 -9.62118e-014
rhumerus 107.909 25.7605 -50.3363
rradius 74.6607
rwrist 10.7396
rhand -35.5813 27.7925
rfingers 7.12502
rthumb -8.70579 -2.00793
lclavicle -1.0138e-013 -9.62118e-014
lhumerus 67.5567 17.7839 69.3489
lradius 87.2425
lwrist 19.7991
lhand -33.0414 19.1695
lfingers 7.12502
lthumb -186.254 -490.943
rfemur 18.8124 -4.36321 24.9751
rtibia 11.1222
rfoot 33.8052 -22.1224
rtoes 14.4149
lfemur -23.5384 -19.7136 -12.3618
ltibia 27.8994
lfoot 23.9274 -44.8038
ltoes 50.6187
395
root -4.77869 18.0615 -2.01635 -168.964 -3.07885 -173.112
lowerback -9.80104 15.2521 14.5761
upperback -14.6506 16.8591 2.41647
thorax -7.37474 5.91144 -3.67495
lowerneck -6.823 -22.8018 -2.99694
upperneck 6.99895 -32.4409 8.22236
head 4.97657 -15.8823 0.414557
rclavicle 7.15625e-014 -6.36111e-015
rhumerus 108.159 25.5429 -50.5208
rradius 75.3078
rwrist 10.9498
rhand -36.4081 28.5797
rfingers 7.12502
rthumb -9.50356 -1.18598
lclavicle 7.15625e-014 -6.36111e-015
lhumerus 68.336 18.3302 69.3695
lradius 87.7362
lwrist 18.5635
lhand -32.9796 19.0719
lfingers 7.12502
lthumb -186.195 -491.039
rfemur 19.1148 -4.36828 25.0478
rtibia 10.3848
rfoot 34.2402 -21.968
rtoes 13.0683
lfemur -23.7927 -19.8505 -12.348
ltibia 28.1177
lfoot 24.3121 -44.8988
ltoes 50.8674
396
root -4.77984 18.0549 -2.04134 -168.884 -3.35733 -173.137
lowerback -9.90276 15.3593 14.5428
upperback -14.7748 16.9886 2.17762
thorax -7.37813 5.96592 -3.8722
lowerneck -6.50658 -22.6792 -3.38561
upperneck 6.83111 -32.2693 8.58216
head 4.98523 -15.805 0.585479
rclavicle -6.52014e-014 2.94201e-014
rhumerus 108.54 25.2506 -50.4623
rradius 75.8622
rwrist 11.0994
rhand -37.4139 29.0728
rfingers 7.12502
rthumb -10.474 -0.646271
lclavicle -6.52014e-014 2.94201e-014
lhumerus 68.9533 18.8651 69.3014
lradius 88.2894
lwrist 17.5439
lhand -33.2934 18.9996
lfingers 7.12502
lthumb -186.498 -491.12
rfemur 19.4364 -4.61552 25.0174
rtibia 9.72667
rfoot 34.6832 -21.8
rtoes 12.809
lfemur -23.9563 -19.9577 -12.327
ltibia 28.3271
lfoot 24.3652 -45.1701
ltoes 50.7845
397
root -4.78199 18.0477 -2.06557 -168.854 -3.61263 -173.013
lowerback -10.032 15.4669 14.6755
upperback -14.8194 17.0961 2.03909
thorax -7.26947 6.00956 -4.02809
lowerneck -6.35228 -22.5705 -3.78635
upperneck 6.67845 -32.0946 8.89523
head 5.01548 -15.7181 0.727605
rclavicle -6.63941e-014 -3.4191e-014
rhumerus 108.986 24.9556 -50.349
rradius 76.5298
rwrist 11.0827
rhand -38.2247 29.4383
rfingers 7.12502
rthumb -11.256 -0.239667
lclavicle -6.63941e-014 -3.4191e-014
lhumerus 69.4134 19.6032 68.9514
lradius 88.8433
lwrist 16.9015
lhand -33.7018 18.9793
lfingers 7.12502
lthumb -186.892 -491.153
rfemur 19.7495 -4.81933 25.1391
rtibia 9.15956
rfoot 35.1718 -21.4548
rtoes 12.4659
lfemur -24.0624 -20.0153 -12.1753
ltibia 28.5144
lfoot 24.3638 -45.4573
ltoes 50.7201
